<svg width="210" height="47" viewBox="0 0 210 47" fill="none" xmlns="http://www.w3.org/2000/svg" xmlns:xlink="http://www.w3.org/1999/xlink">
 <path d="M23.1356 0C10.3988 0 0.0348953 10.3212 0 23.0484V23.1531C0 35.9151 10.3988 46.2712 23.1356 46.2712C35.9073 46.2712 46.2712 35.8803 46.2712 23.1531C46.2712 10.3561 35.9073 0 23.1356 0ZM17.343 2.19675C19.0877 1.70858 20.9371 1.42963 22.8564 1.39476C22.9611 1.39476 23.0309 1.39476 23.1356 1.39476C23.2403 1.39476 23.345 1.39476 23.4148 1.39476C26.3808 1.49937 28.9282 3.38229 30.0099 5.96261C30.2543 6.52051 30.3938 7.07841 30.4985 7.70605C30.5683 8.05474 30.5683 8.4383 30.5683 8.82186C30.5683 10.4956 30.0099 12.0298 29.1027 13.2851C28.1257 12.6923 27.0439 12.239 25.9272 11.9601C26.7995 11.193 27.323 10.0771 27.323 8.82186C27.323 7.91526 27.0439 7.07841 26.5205 6.38103C25.7528 5.33497 24.5314 4.63757 23.1356 4.63757C20.6929 4.63757 18.3898 5.09087 16.2613 5.96261C15.668 6.20669 15.1097 6.48564 14.5513 6.76459C11.2712 8.50804 8.54935 11.193 6.80458 14.5056C4.99003 14.9239 3.38484 15.9002 2.1984 17.2602C4.25722 9.97254 10.015 4.21915 17.343 2.19675ZM31.9641 8.50804C34.337 9.93766 36.3261 11.9252 37.7567 14.2963C37.652 14.2963 37.5473 14.2963 37.4426 14.2963C35.4886 14.2963 33.674 14.9239 32.2084 16.0398C31.6501 15.3075 30.9871 14.645 30.2543 14.0871C31.336 12.6226 31.999 10.8094 31.999 8.85672C31.9641 8.71726 31.9641 8.61264 31.9641 8.50804ZM39.8853 19.7358C39.1875 19.2477 38.35 18.9339 37.4426 18.9339C36.1864 18.9339 35.0698 19.4569 34.3021 20.3287C33.6392 21.0609 33.2552 22.0372 33.2552 23.1181C33.2552 24.9313 32.7667 26.6399 31.9291 28.1044C31.6849 28.5229 31.4407 28.9065 31.1266 29.29C30.6032 29.9873 29.9751 30.5802 29.3121 31.1032C28.4746 30.2663 27.4627 29.6037 26.3111 29.1854C27.5324 28.5577 28.5444 27.5465 29.1725 26.3261C29.696 25.3847 29.9751 24.2688 29.9751 23.1181C29.9751 21.2003 30.7079 19.4569 31.8943 18.1319C32.2084 17.7832 32.5573 17.4694 32.9412 17.1556C34.1974 16.2141 35.7328 15.691 37.4078 15.691C37.7916 15.691 38.1755 15.726 38.5244 15.7608C39.1525 17.0161 39.6061 18.341 39.8853 19.7358ZM40.2342 22.9787C40.2342 23.0136 40.2342 23.0832 40.2342 23.1181C40.2342 23.1531 40.2342 23.2228 40.2342 23.2576C40.1645 24.7221 38.9431 25.9077 37.4426 25.9077C35.9073 25.9077 34.651 24.6524 34.651 23.1181C34.651 21.5839 35.9073 20.3287 37.4426 20.3287C38.9431 20.3287 40.1645 21.5142 40.2342 22.9787ZM30.2543 32.1841C30.9871 31.6262 31.6501 30.9637 32.2084 30.2314C33.674 31.3124 35.4886 31.94 37.4426 31.94C37.5473 31.94 37.652 31.94 37.7567 31.94C36.3261 34.3111 34.337 36.2986 31.9641 37.7282C31.9641 37.6237 31.9641 37.5191 31.9641 37.4144C31.9641 35.4618 31.336 33.6486 30.2543 32.1841ZM25.9272 34.3111C25.1944 33.6486 24.2173 33.2651 23.1704 33.2651C21.3559 33.2651 19.646 32.7769 18.1805 31.94C17.7618 31.6959 17.3779 31.4518 16.994 31.1381C16.2961 30.615 15.668 29.9873 15.1446 29.29C15.9821 28.4532 16.645 27.4418 17.0986 26.3261C17.7268 27.5465 18.7388 28.5577 19.9951 29.2203C20.9371 29.7433 22.0539 30.0222 23.2054 30.0222C25.1247 30.0222 26.8694 30.7544 28.1953 31.94C28.5444 32.2539 28.8585 32.6025 29.1725 32.9862C30.1146 34.2414 30.638 35.7756 30.638 37.4493C30.638 37.8329 30.6032 38.1815 30.5683 38.5652C29.3121 39.1579 27.986 39.6112 26.5902 39.8901C27.0788 39.1927 27.3928 38.3559 27.3928 37.4493C27.323 36.194 26.7647 35.0782 25.9272 34.3111ZM25.9272 37.4493C25.9272 38.8789 24.8455 40.0645 23.4497 40.204C23.345 40.204 23.2751 40.204 23.1704 40.204C23.0658 40.204 22.9611 40.204 22.8914 40.204C21.4956 40.0645 20.4137 38.8789 20.4137 37.4493C20.4137 35.9151 21.67 34.6599 23.2054 34.6599C24.6709 34.6599 25.9272 35.9151 25.9272 37.4493ZM14.3071 37.7282C11.9342 36.2986 9.91026 34.2762 8.47956 31.9051C8.58425 31.9051 8.72382 31.9051 8.82851 31.9051C10.7826 31.9051 12.5972 31.2774 14.0279 30.1966C14.6211 30.9288 15.2841 31.5914 16.0169 32.1841C14.9352 33.6486 14.2722 35.4618 14.2722 37.4144C14.3071 37.554 14.3071 37.6585 14.3071 37.7282ZM8.82851 27.2676C10.0499 27.2676 11.1665 26.7446 11.9342 25.8728C11.9691 25.838 12.004 25.7683 12.0389 25.7333C12.1087 25.6287 12.1785 25.559 12.2483 25.4544C12.2831 25.4195 12.318 25.3498 12.318 25.315C12.3529 25.28 12.3529 25.2451 12.3878 25.2103C12.4227 25.1406 12.4576 25.0709 12.5274 25.001C12.5274 25.001 12.5274 25.001 12.5274 24.9662C12.5623 24.9314 12.5623 24.8617 12.5972 24.8268C12.6321 24.757 12.6321 24.7221 12.667 24.6524C12.667 24.6176 12.7019 24.5827 12.7019 24.5477C12.7368 24.5129 12.7368 24.4432 12.7368 24.4083C12.7717 24.3386 12.7717 24.234 12.8066 24.1643C12.8066 24.1643 12.8066 24.1643 12.8066 24.1294C12.8066 24.0944 12.8415 24.0596 12.8415 23.9899C12.8415 23.955 12.8764 23.9202 12.8764 23.8853V23.8503C12.8764 23.8155 12.8764 23.7806 12.8764 23.7458C12.8764 23.7109 12.8764 23.6761 12.8764 23.6413C12.8764 23.5714 12.8764 23.5017 12.9113 23.432C12.9113 23.3972 12.9113 23.3622 12.9113 23.3273C12.9113 23.2576 12.9113 23.2228 12.9113 23.1531V23.1181C12.9113 21.305 13.3998 19.5964 14.2373 18.1319C14.4816 17.7135 14.7258 17.3299 15.0399 16.9464C15.5633 16.2838 16.1566 15.6561 16.8544 15.1331C17.6919 15.9701 18.7038 16.6325 19.8554 17.0858C18.6341 17.7135 17.6221 18.7246 16.994 19.9451C16.4705 20.8865 16.1914 21.9675 16.1914 23.1181V23.1531C16.1914 25.0709 15.4238 26.8143 14.2373 28.1044C13.9232 28.4532 13.5743 28.7669 13.1904 29.0459C11.9342 29.9525 10.4337 30.5104 8.75872 30.5104C8.37487 30.5104 7.99102 30.4755 7.60717 30.4407C7.01396 29.1854 6.56031 27.8603 6.28115 26.4655C7.08374 26.9887 7.92124 27.2676 8.82851 27.2676ZM6.03689 23.1181C6.03689 23.0484 6.03689 23.0136 6.03689 22.9439C6.10668 21.4794 7.32801 20.2938 8.82851 20.2938C10.3639 20.2938 11.6201 21.5491 11.6201 23.0832V23.1181C11.5852 24.6176 10.3639 25.838 8.82851 25.838C7.29312 25.8728 6.07178 24.6524 6.03689 23.1181ZM16.0169 14.0871C15.2841 14.645 14.656 15.3075 14.0977 16.0049C12.6321 14.9239 10.8176 14.2614 8.82851 14.2614C8.72382 14.2614 8.61914 14.2614 8.54935 14.2614C9.98006 11.9252 11.9691 9.93766 14.3071 8.50804C14.3071 8.61264 14.3071 8.71726 14.3071 8.82186C14.3071 10.7745 14.9352 12.5877 16.0169 14.0871ZM20.3788 11.9601C21.1117 12.6226 22.0887 13.0062 23.1704 13.0062C24.985 13.0062 26.6949 13.4943 28.1605 14.3312C28.5793 14.5753 28.9632 14.8194 29.3469 15.1331C30.0449 15.6561 30.638 16.2838 31.1615 16.9464C30.324 17.7832 29.661 18.7943 29.2422 19.9451C28.6141 18.7246 27.6022 17.7135 26.3808 17.0858C25.4387 16.5628 24.322 16.2838 23.1704 16.2838C21.2512 16.2838 19.5065 15.5516 18.1805 14.366C17.8315 14.0522 17.5174 13.7035 17.2033 13.32C16.2613 12.0647 15.7378 10.5304 15.7378 8.85672C15.7378 8.47317 15.7727 8.08961 15.8075 7.74092C17.0638 7.14815 18.3898 6.69485 19.7857 6.4159C19.2971 7.11328 18.983 7.95014 18.983 8.85672C18.9482 10.0771 19.5065 11.193 20.3788 11.9601ZM20.344 8.82186C20.344 7.32249 21.5304 6.10209 22.9961 6.03235C23.0309 6.03235 23.1007 6.03235 23.1356 6.03235C23.1704 6.03235 23.2403 6.03235 23.2751 6.03235C24.7408 6.10209 25.9272 7.32249 25.9272 8.82186C25.9272 10.3561 24.6709 11.6114 23.1356 11.6114C21.6003 11.6114 20.344 10.3561 20.344 8.82186ZM28.6141 23.1181C28.6141 26.1518 26.1714 28.5926 23.1356 28.5926C20.0998 28.5926 17.6571 26.1518 17.6571 23.1181V23.0832C17.6919 20.0846 20.1346 17.6438 23.1356 17.6438C26.1366 17.6438 28.6141 20.1194 28.6141 23.1181ZM2.16351 28.8715C1.67497 27.1281 1.43071 25.315 1.39581 23.432C1.39581 23.3273 1.39581 23.2576 1.39581 23.1531V23.0832C1.39581 22.9787 1.39581 22.909 1.39581 22.8043C1.53539 19.8405 3.38484 17.3299 6.00199 16.249C6.56031 16.0398 7.11865 15.8654 7.74677 15.7608C8.09571 15.691 8.47956 15.691 8.82851 15.691C10.5035 15.691 12.0389 16.249 13.2951 17.1905C12.7019 18.1668 12.2483 19.2477 11.9691 20.3635C11.2014 19.4917 10.0847 18.9687 8.82851 18.9687C7.92124 18.9687 7.08374 19.2477 6.38584 19.7358C5.33899 20.5031 4.64107 21.7235 4.64107 23.0832V23.1531C4.64107 25.559 5.09472 27.8603 5.9322 29.9525C6.17647 30.5452 6.42073 31.1032 6.7348 31.6611C8.47956 35.0085 11.2014 37.7282 14.5164 39.4718C14.9352 41.2849 15.9472 42.8889 17.308 44.0745C9.98006 42.052 4.18744 36.2289 2.16351 28.8715ZM28.9632 44.0745C27.2183 44.5626 25.3689 44.8416 23.4497 44.8416C23.345 44.8416 23.2751 44.8416 23.1704 44.8416C23.0658 44.8416 22.9611 44.8416 22.8914 44.8416C19.9252 44.737 17.3779 42.8541 16.2961 40.2737C16.0519 39.7159 15.9122 39.1579 15.8075 38.5303C15.7378 38.1815 15.7378 37.7981 15.7378 37.4144C15.7378 35.7407 16.2961 34.2066 17.2033 32.9512C18.1805 33.544 19.2623 33.9973 20.3788 34.2762C19.5065 35.0433 18.983 36.1592 18.983 37.4144C18.983 38.3211 19.2623 39.1579 19.7857 39.8553C20.4835 40.8316 21.5653 41.4941 22.8215 41.5988H22.8564C22.9611 41.5988 23.0658 41.5988 23.1704 41.5988C23.2751 41.5988 23.3798 41.5988 23.4845 41.5988H23.5195C25.8225 41.5638 28.021 41.0757 30.0449 40.2737C30.638 40.0296 31.1965 39.7856 31.7548 39.4718C35.0698 37.7282 37.7916 35.0085 39.5364 31.6959C41.351 31.2774 42.9561 30.2663 44.1077 28.9065C42.0838 36.2637 36.2911 42.052 28.9632 44.0745ZM44.8754 23.1181C44.8754 23.2228 44.8754 23.2925 44.8754 23.3972C44.7707 26.361 42.8863 28.8715 40.3041 29.9525C39.7458 30.1966 39.1875 30.3361 38.5594 30.4407C38.2103 30.5104 37.8266 30.5104 37.4426 30.5104C35.7676 30.5104 34.2323 29.9525 33.011 29.0459C33.6042 28.0695 34.0578 26.9887 34.337 25.8728C35.1046 26.7446 36.2214 27.2676 37.4776 27.2676C38.3848 27.2676 39.2223 26.9537 39.9202 26.4655C40.9671 25.6984 41.665 24.478 41.665 23.0832C41.665 20.6773 41.2114 18.3412 40.3389 16.2141C40.0947 15.6213 39.8155 15.0634 39.5364 14.5056C37.7916 11.193 35.0698 8.47317 31.7548 6.72972C31.336 4.91653 30.324 3.31255 28.9632 2.12701C36.2911 4.14941 42.0838 9.93768 44.1077 17.2602C44.5962 19.0036 44.8754 20.8517 44.8754 22.7695C44.8754 22.909 44.8754 23.0136 44.8754 23.1181Z" fill="white">
 </path>
 <path fill-rule="evenodd" clip-rule="evenodd" d="M67.1172 13.7844H71.8983L76.3639 25.992H76.4367L80.8537 13.7844H85.6591V30.9672H82.6254V17.1578H82.5769L77.3589 30.9672H75.2232L70.0781 17.1578H70.0295V30.9672H67.1172V13.7844ZM94.0293 13.7844H105.412V16.454H97.0873V20.8225H104.975V23.3951H97.0873V28.249H105.849V30.9672H94.0293V13.7844ZM118.976 21.1866C119.413 21.1866 119.849 21.1543 120.286 21.0895C120.723 21.0247 121.115 20.9034 121.463 20.7255C121.811 20.5475 122.098 20.2927 122.325 19.961C122.551 19.6292 122.665 19.2045 122.665 18.6868C122.665 18.2177 122.56 17.8333 122.349 17.534C122.139 17.2348 121.872 16.996 121.548 16.8181C121.225 16.6401 120.857 16.5188 120.444 16.454C120.031 16.3893 119.631 16.357 119.243 16.357H116.476V21.1866H118.976ZM113.418 13.7844H119.388C120.197 13.7844 120.982 13.8693 121.742 14.0392C122.503 14.2091 123.178 14.4882 123.769 14.8765C124.36 15.2648 124.833 15.7745 125.189 16.4055C125.545 17.0365 125.723 17.8051 125.723 18.7111C125.723 19.9569 125.371 20.9723 124.667 21.7569C123.963 22.5416 123.004 23.0716 121.791 23.3466L126.378 30.9672H122.689L118.709 23.6863H116.476V30.9672H113.418V13.7844ZM145.67 17.8131C145.216 17.1983 144.626 16.7494 143.898 16.4662C143.17 16.183 142.458 16.0415 141.762 16.0415C140.872 16.0415 140.063 16.2033 139.335 16.5268C138.607 16.8504 137.98 17.2954 137.454 17.8617C136.928 18.4279 136.524 19.0914 136.241 19.8518C135.958 20.6122 135.816 21.4373 135.816 22.3273C135.816 23.2657 135.954 24.1232 136.229 24.8998C136.504 25.6764 136.896 26.3439 137.406 26.9021C137.915 27.4603 138.526 27.893 139.238 28.2005C139.95 28.5079 140.751 28.6616 141.641 28.6616C142.563 28.6616 143.38 28.4796 144.092 28.1155C144.804 27.7515 145.378 27.2702 145.815 26.6715L148.266 28.3946C147.506 29.3492 146.576 30.0894 145.475 30.6153C144.375 31.1412 143.089 31.4041 141.617 31.4041C140.274 31.4041 139.04 31.1815 137.915 30.7366C136.791 30.2918 135.824 29.6688 135.015 28.8679C134.206 28.067 133.575 27.1124 133.122 26.0041C132.669 24.8957 132.443 23.6701 132.443 22.3273C132.443 20.9519 132.681 19.7102 133.159 18.6019C133.636 17.4935 134.291 16.5511 135.124 15.7745C135.958 14.9979 136.941 14.3992 138.073 13.9785C139.206 13.5579 140.435 13.3475 141.762 13.3475C142.312 13.3475 142.887 13.4001 143.485 13.5053C144.084 13.6104 144.658 13.7723 145.208 13.9907C145.758 14.2091 146.276 14.4802 146.762 14.8037C147.247 15.1272 147.66 15.5156 147.999 15.9686L145.67 17.8131ZM168.432 24.6571C168.432 25.6927 168.254 26.6271 167.898 27.4603C167.541 28.2935 167.056 29.0014 166.442 29.5838C165.827 30.1663 165.099 30.6153 164.257 30.9308C163.416 31.2463 162.502 31.4041 161.515 31.4041C160.528 31.4041 159.614 31.2463 158.773 30.9308C157.931 30.6153 157.2 30.1663 156.576 29.5838C155.953 29.0014 155.467 28.2935 155.12 27.4603C154.773 26.6271 154.598 25.6927 154.598 24.6571V13.7844H157.656V24.5358C157.656 25.0374 157.721 25.5349 157.85 26.0284C157.979 26.5218 158.195 26.9627 158.493 27.351C158.792 27.7394 159.19 28.0549 159.683 28.2976C160.176 28.5403 160.787 28.6616 161.515 28.6616C162.243 28.6616 162.854 28.5403 163.347 28.2976C163.84 28.0549 164.238 27.7394 164.537 27.351C164.835 26.9627 165.051 26.5218 165.18 26.0284C165.309 25.5349 165.374 25.0374 165.374 24.5358V13.7844H168.432V24.6571ZM182.214 21.1866C182.651 21.1866 183.088 21.1543 183.524 21.0895C183.961 21.0247 184.354 20.9034 184.701 20.7255C185.049 20.5475 185.337 20.2927 185.563 19.961C185.789 19.6292 185.903 19.2045 185.903 18.6868C185.903 18.2177 185.798 17.8333 185.587 17.534C185.376 17.2348 185.109 16.996 184.786 16.8181C184.463 16.6401 184.095 16.5188 183.682 16.454C183.27 16.3893 182.869 16.357 182.481 16.357H179.714V21.1866H182.214ZM176.656 13.7844H182.626C183.435 13.7844 184.221 13.8693 184.981 14.0392C185.74 14.2091 186.417 14.4882 187.007 14.8765C187.597 15.2648 188.07 15.7745 188.427 16.4055C188.783 17.0365 188.961 17.8051 188.961 18.7111C188.961 19.9569 188.609 20.9723 187.905 21.7569C187.201 22.5416 186.243 23.0716 185.029 23.3466L189.616 30.9672H185.927L181.947 23.6863H179.714V30.9672H176.656V13.7844ZM200.486 23.5165L194.03 13.7844H197.768L202.088 21.0167L206.456 13.7844H209.999L203.544 23.5165V30.9672H200.486V23.5165Z" fill="white">
 </path>
</svg>