<svg version="1.1" id="Layer_1" xmlns:x="ns_extend;" xmlns:i="ns_ai;" xmlns:graph="ns_graphs;" xmlns="http://www.w3.org/2000/svg" xmlns:xlink="http://www.w3.org/1999/xlink" x="0px" y="0px" viewBox="0 0 395.6 70" style="enable-background:new 0 0 395.6 70;" xml:space="preserve">
 <style type="text/css">
  .st0{fill:#F2F8F3;}
 </style>
 <metadata>
  <sfw xmlns="ns_sfw;">
   <slices>
   </slices>
   <sliceSourceBounds bottomLeftOrigin="true" height="70" width="395.6" x="405.5" y="168.3">
   </sliceSourceBounds>
  </sfw>
 </metadata>
 <g>
  <path class="st0" d="M0,68.2V1.9h17.7v8.9c3.6-6.5,10.6-10.5,18-10.1c7.7-0.2,14.8,3.9,18.4,10.6C61.1,4,66.4,0.7,74.7,0.7
		C89.6,0.7,98,9.1,98,24.5v43.7H79V32.3c0-9.3-2-13.5-9.3-13.5c-7.4,0-11.4,4.5-11.4,13.5v35.9H39.2V32.3c0-9.3-2-13.5-9.3-13.5
		c-7.4,0-11.4,4.5-11.4,13.5v35.9H0L0,68.2z M120.5,10.6C134-3.2,156.2-3.5,170,10s14.1,35.7,0.6,49.5c-3.3,3.4-7.3,6.1-11.7,7.9
		c-4.3,1.8-9,2.7-13.7,2.6c-9.5,0.3-18.7-3.6-25.1-10.6c-6.3-6.6-9.8-15.3-9.7-24.5C110.4,25.8,114,17,120.5,10.6L120.5,10.6z
		 M145.3,51.5c9,0.4,16.7-6.6,17.1-15.7s-6.6-16.7-15.7-17.1c-9-0.4-16.7,6.6-17.1,15.7c0,0.3,0,0.5,0,0.8
		C129.5,44,136.5,51.3,145.3,51.5L145.3,51.5z M192.8,68.2V1.9h18.5l-0.2,8.9c3.9-6.7,11.3-10.6,19-10.1c13.7,0,22.6,8.6,22.6,23.8
		v43.7h-19.5V32.3c0-9.3-2-13.5-9.5-13.5c-7.7,0-11.7,4.5-11.7,13.5v35.9H192.8L192.8,68.2z M335.5,10.5C349.1-3.3,371.2-3.5,385,10
		c13.8,13.5,14.1,35.7,0.6,49.5c-3.3,3.4-7.3,6.1-11.7,7.9c-4.3,1.8-9,2.7-13.7,2.6c-9.5,0.3-18.7-3.6-25.1-10.6
		c-6.3-6.6-9.8-15.3-9.7-24.5C325.4,25.7,329,17,335.5,10.5L335.5,10.5z M360.4,51.4c9,0.4,16.7-6.6,17.1-15.7
		c0.4-9-6.6-16.7-15.7-17.1c-9-0.4-16.7,6.6-17.1,15.7c0,0.3,0,0.5,0,0.8C344.5,44,351.6,51.2,360.4,51.4L360.4,51.4z M266.9,68.2
		V54.4l27.3-35.4h-27.3V1.9h49.3v15.6l-24.1,33.5h24.6v17.1H266.9L266.9,68.2z">
  </path>
 </g>
</svg>